<svg width="73" height="47" viewBox="0 0 73 47" fill="none" xmlns="http://www.w3.org/2000/svg">
<path d="M66.3737 17.8628C68.5788 15.5087 69.7036 12.1906 69.0998 8.76634C68.0821 2.9947 62.5848 -0.854567 56.8131 0.163128C51.0415 1.18082 47.1922 6.67815 48.2099 12.4498C48.3353 13.1605 48.534 13.8471 48.7829 14.5027L21.2169 19.3633C21.2372 18.6603 21.1784 17.9489 21.0531 17.2383C20.0354 11.4666 14.5381 7.61736 8.76646 8.63505C2.99483 9.65275 -0.854438 15.1501 0.163256 20.9217C0.767038 24.3459 2.94807 27.0812 5.83614 28.5372C3.63097 30.8912 2.50623 34.2094 3.11001 37.6336C4.12771 43.4052 9.62504 47.2545 15.3967 46.2368C21.1683 45.2191 25.0176 39.7218 23.9999 33.9502C23.8746 33.2395 23.6758 32.5528 23.4269 31.8972L50.9929 27.0366C50.9726 27.7397 51.0314 28.451 51.1567 29.1617C52.1744 34.9333 57.6717 38.7826 63.4433 37.7649C69.215 36.7472 73.0642 31.2499 72.0466 25.4782C71.432 22.0559 69.251 19.3206 66.3737 17.8628Z" fill="#2D2D2D"/>
</svg>
