<svg width="74" height="61" viewBox="0 0 74 61" fill="none" xmlns="http://www.w3.org/2000/svg">
<path d="M30 33L33 36.5L27.5 42L30 44L26 46L23.5 44H19L15.5 47.5V51.5L17.5 55L15.5 58L11 51.5L12 46L15.5 42L30 33Z" fill="#009379"/>
<path d="M31.5 47L30 43.5L26.5 45.5V48.5V52.5L24.5 54.5H21L18 54L15.5 57.5L19 59H24.5L28.5 56.5L31 52.5L31.5 47Z" fill="#009379"/>
<path d="M18.0227 40.207L36.5673 28.7039V23.0849L66.4662 8.45877L27.7217 41.3644" stroke="#2D2D2D" stroke-width="2" stroke-linecap="round" stroke-linejoin="round"/>
<path d="M18.0551 40.2781C16.175 41.0411 14.5653 42.3475 13.4319 44.0304C12.2985 45.7133 11.6928 47.696 11.6925 49.725C11.6925 52.4294 12.7668 55.023 14.6791 56.9353C16.5914 58.8476 19.185 59.9219 21.8894 59.9219C24.5938 59.9219 27.1875 58.8476 29.0997 56.9353C31.012 55.023 32.0864 52.4294 32.0864 49.725C32.0859 48.0836 31.6896 46.4666 30.9309 45.0111C30.1722 43.5557 29.0736 42.3047 27.7283 41.3644" stroke="#2D2D2D" stroke-width="2" stroke-linecap="round" stroke-linejoin="round"/>
<path d="M27.4387 24.4475L28.4387 19.2186L22.7703 17.895L23.9157 14.9054L19.4534 15.2028L18.3081 18.1924L14.4259 20.4681L9.63645 19.2186L7.61364 15.7677L7.5691 11.7369L4.32658 10.1601L4.32655 17.4476L7.37552 22.2826L12.4178 23.9635L27.4387 24.4475Z" fill="#009379"/>
<path d="M23.6927 11.5587L24.1686 15.3367L20.1377 15.3813L19.4388 11.4476L15.9388 8.4476L11.9388 7.9476L9.43878 9.9476L8.50621 12.3467L4.57948 10.5915L6.84041 7.52747L10.4388 3.9476L15.9388 3.4476L20.1377 5.9476L23.6927 11.5587Z" fill="#009379"/>
<path d="M21.8183 55.5121C25.0287 55.5121 27.6313 52.9095 27.6313 49.6991C27.6313 46.4887 25.0287 43.8861 21.8183 43.8861C18.6079 43.8861 16.0054 46.4887 16.0054 49.6991C16.0054 52.9095 18.6079 55.5121 21.8183 55.5121Z" stroke="#2D2D2D" stroke-width="2" stroke-linecap="round" stroke-linejoin="round"/>
<path d="M38.9145 21.934L23.0081 18.5005" stroke="#2D2D2D" stroke-width="2" stroke-linecap="round" stroke-linejoin="round"/>
<path d="M40.6344 30.4043L72.6994 29.2275L48.232 23.9447" stroke="#2D2D2D" stroke-width="2" stroke-linecap="round" stroke-linejoin="round"/>
<path d="M14.7445 24.0224L36.5221 25.4061" stroke="#2D2D2D" stroke-width="2" stroke-linecap="round" stroke-linejoin="round"/>
<path d="M15.0031 24.029C12.9843 24.2447 10.947 23.8529 9.15228 22.9037C7.35753 21.9545 5.88699 20.4911 4.92904 18.701C4.29678 17.5208 3.90328 16.2276 3.77103 14.8952C3.63878 13.5629 3.77037 12.2176 4.15829 10.9362C4.5462 9.65474 5.18284 8.46228 6.03181 7.42699C6.88078 6.3917 7.92544 5.53384 9.10609 4.90246C10.2864 4.2698 11.5797 3.87584 12.9123 3.74304C14.2448 3.61024 15.5905 3.74122 16.8724 4.1285C18.1543 4.51578 19.3474 5.15176 20.3835 6.00015C21.4196 6.84854 22.2785 7.89273 22.9111 9.07306C23.6848 10.5205 24.0981 12.133 24.1161 13.7741C24.1341 15.4153 23.7563 17.0365 23.0145 18.5005" stroke="#2D2D2D" stroke-width="2" stroke-linecap="round" stroke-linejoin="round"/>
<path d="M13.8716 19.7613C17.082 19.7613 19.6845 17.1588 19.6845 13.9484C19.6845 10.738 17.082 8.13541 13.8716 8.13541C10.6611 8.13541 8.05859 10.738 8.05859 13.9484C8.05859 17.1588 10.6611 19.7613 13.8716 19.7613Z" stroke="#2D2D2D" stroke-width="2" stroke-linecap="round" stroke-linejoin="round"/>
<path d="M42.1991 24.725C42.1986 24.725 42.1991 24.7252 42.2001 24.725C42.2012 24.7248 42.2029 24.7245 42.204 24.724C42.2058 24.7232 42.2067 24.7223 42.2069 24.7221C42.2071 24.7218 42.208 24.721 42.2089 24.7191C42.2093 24.7181 42.2096 24.7164 42.2098 24.7152V24.7133C42.2096 24.7122 42.2093 24.7104 42.2089 24.7094C42.2081 24.7076 42.2071 24.7067 42.2069 24.7065C42.2066 24.7062 42.2058 24.7053 42.204 24.7045C42.2029 24.704 42.2012 24.7038 42.2001 24.7035C42.1991 24.7033 42.1986 24.7035 42.1991 24.7035M42.1991 24.725V24.7035M42.1991 24.725H42.1981C42.197 24.7248 42.1953 24.7245 42.1942 24.724C42.1924 24.7232 42.1915 24.7223 42.1913 24.7221C42.191 24.7218 42.1901 24.7209 42.1893 24.7191C42.1889 24.7181 42.1886 24.7164 42.1884 24.7152V24.7133C42.1886 24.7122 42.1889 24.7104 42.1893 24.7094C42.1901 24.7076 42.1911 24.7067 42.1913 24.7065C42.1915 24.7062 42.1924 24.7053 42.1942 24.7045C42.1953 24.704 42.197 24.7038 42.1981 24.7035C42.1992 24.7033 42.1997 24.7035 42.1991 24.7035M42.1991 24.725V24.7035" fill="#2D2D2D" stroke="#2D2D2D" stroke-width="2"/>
</svg>
