<svg width="35" height="35" viewBox="0 0 35 35" fill="none" xmlns="http://www.w3.org/2000/svg">
<path d="M28.9407 10.2715C26.4523 9.63296 23.9063 9.24437 21.3407 9.11151C20.0807 9.03151 18.7007 8.99151 17.1507 9.00151C15.6007 9.01151 14.2207 9.00151 12.9707 9.11151C10.4051 9.24437 7.85912 9.63296 5.37069 10.2715C2.72069 10.9715 1.37068 20.2115 1.01068 23.0115C0.976781 23.2416 1.02414 23.4763 1.1446 23.6752C1.26506 23.8742 1.45109 24.0249 1.67069 24.1015C1.67069 24.1015 2.47068 24.4215 3.89068 24.8315C8.10585 26.1069 12.4868 26.7506 16.8907 26.7415H17.4407C21.8447 26.7516 26.2257 26.1079 30.4407 24.8315C31.8607 24.4215 32.6707 24.1015 32.6707 24.1015C32.8903 24.0249 33.0763 23.8742 33.1968 23.6752C33.3172 23.4763 33.3646 23.2416 33.3307 23.0115C32.9607 20.1815 31.6007 10.9415 28.9407 10.2715Z" fill="#2D2D2D"/>
<path d="M17.1799 12.8815C22.8353 12.8815 27.4199 12.2547 27.4199 11.4815C27.4199 10.7083 22.8353 10.0815 17.1799 10.0815C11.5245 10.0815 6.93994 10.7083 6.93994 11.4815C6.93994 12.2547 11.5245 12.8815 17.1799 12.8815Z" fill="white"/>
<path d="M10.6213 17.3714V16.5974H12.0673V20.9714H11.2033V17.3714H10.6213ZM13.1611 20.0234C13.5451 19.7034 13.8511 19.4374 14.0791 19.2254C14.3071 19.0094 14.4971 18.7854 14.6491 18.5534C14.8011 18.3214 14.8771 18.0934 14.8771 17.8694C14.8771 17.6654 14.8291 17.5054 14.7331 17.3894C14.6371 17.2734 14.4891 17.2154 14.2891 17.2154C14.0891 17.2154 13.9351 17.2834 13.8271 17.4194C13.7191 17.5514 13.6631 17.7334 13.6591 17.9654H12.8431C12.8591 17.4854 13.0011 17.1214 13.2691 16.8734C13.5411 16.6254 13.8851 16.5014 14.3011 16.5014C14.7571 16.5014 15.1071 16.6234 15.3511 16.8674C15.5951 17.1074 15.7171 17.4254 15.7171 17.8214C15.7171 18.1334 15.6331 18.4314 15.4651 18.7154C15.2971 18.9994 15.1051 19.2474 14.8891 19.4594C14.6731 19.6674 14.3911 19.9194 14.0431 20.2154H15.8131V20.9114H12.8491V20.2874L13.1611 20.0234ZM18.4064 20.9714L17.2784 19.5554V20.9714H16.4384V16.5314H17.2784V19.0574L18.3944 17.6474H19.4864L18.0224 19.3154L19.4984 20.9714H18.4064ZM21.2443 17.5934C21.4923 17.5934 21.7103 17.6434 21.8983 17.7434C22.0863 17.8394 22.2343 17.9654 22.3423 18.1214V17.6474H23.1883V20.9954C23.1883 21.3034 23.1263 21.5774 23.0023 21.8174C22.8783 22.0614 22.6923 22.2534 22.4443 22.3934C22.1963 22.5374 21.8963 22.6094 21.5443 22.6094C21.0723 22.6094 20.6843 22.4994 20.3803 22.2794C20.0803 22.0594 19.9103 21.7594 19.8703 21.3794H20.7043C20.7483 21.5314 20.8423 21.6514 20.9863 21.7394C21.1343 21.8314 21.3123 21.8774 21.5203 21.8774C21.7643 21.8774 21.9623 21.8034 22.1143 21.6554C22.2663 21.5114 22.3423 21.2914 22.3423 20.9954V20.4794C22.2343 20.6354 22.0843 20.7654 21.8923 20.8694C21.7043 20.9734 21.4883 21.0254 21.2443 21.0254C20.9643 21.0254 20.7083 20.9534 20.4763 20.8094C20.2443 20.6654 20.0603 20.4634 19.9243 20.2034C19.7923 19.9394 19.7263 19.6374 19.7263 19.2974C19.7263 18.9614 19.7923 18.6634 19.9243 18.4034C20.0603 18.1434 20.2423 17.9434 20.4703 17.8034C20.7023 17.6634 20.9603 17.5934 21.2443 17.5934ZM22.3423 19.3094C22.3423 19.1054 22.3023 18.9314 22.2223 18.7874C22.1423 18.6394 22.0343 18.5274 21.8983 18.4514C21.7623 18.3714 21.6163 18.3314 21.4603 18.3314C21.3043 18.3314 21.1603 18.3694 21.0283 18.4454C20.8963 18.5214 20.7883 18.6334 20.7043 18.7814C20.6243 18.9254 20.5843 19.0974 20.5843 19.2974C20.5843 19.4974 20.6243 19.6734 20.7043 19.8254C20.7883 19.9734 20.8963 20.0874 21.0283 20.1674C21.1643 20.2474 21.3083 20.2874 21.4603 20.2874C21.6163 20.2874 21.7623 20.2494 21.8983 20.1734C22.0343 20.0934 22.1423 19.9814 22.2223 19.8374C22.3023 19.6894 22.3423 19.5134 22.3423 19.3094Z" fill="white"/>
</svg>
